<svg width="76" height="59" viewBox="0 0 76 59" fill="none" xmlns="http://www.w3.org/2000/svg">
<path d="M75.36 55.6953V58.9684H72.0869V55.6953H75.36Z" fill="#21201E"/>
<path d="M75.36 52.3992V55.6953L72.0869 55.6722V52.3992H75.36Z" fill="#21201E"/>
<path d="M75.36 49.126V52.4221L72.0869 52.399V49.126H75.36Z" fill="#21201E"/>
<path d="M75.36 45.8762V49.1262H72.0869V45.8762H75.36Z" fill="#21201E"/>
<path d="M75.36 42.603V45.8761H72.0869V42.603H75.36Z" fill="#21201E"/>
<path d="M75.36 39.3301V42.6031H72.0869V39.3301H75.36Z" fill="#21201E"/>
<path d="M75.36 36.0339V39.33L72.0869 39.307V36.0339H75.36Z" fill="#21201E"/>
<path d="M75.36 32.7839V36.0339H72.0869V32.7839H75.36Z" fill="#21201E"/>
<path d="M75.36 29.4878V32.7839L72.0869 32.7609V29.4878H75.36Z" fill="#21201E"/>
<path d="M75.36 26.2378V29.4878H72.0869V26.2378H75.36Z" fill="#21201E"/>
<path d="M75.36 22.9648V26.2379H72.0869V22.9648H75.36Z" fill="#21201E"/>
<path d="M75.36 19.6687V22.9648L72.0869 22.9418V19.6687H75.36Z" fill="#21201E"/>
<path d="M75.36 16.4187V19.6687H72.0869V16.4187H75.36Z" fill="#21201E"/>
<path d="M75.36 13.1226V16.4187L72.0869 16.3956V13.1226H75.36Z" fill="#21201E"/>
<path d="M75.36 9.87256V13.1226H72.0869V9.87256H75.36Z" fill="#21201E"/>
<path d="M75.36 6.59961V9.87267H72.0869V6.59961H75.36Z" fill="#21201E"/>
<path d="M75.36 3.30347V6.59957L72.0869 6.57653V3.30347H75.36Z" fill="#21201E"/>
<path d="M72.0865 55.6953V58.9684H68.8135V55.6953H72.0865Z" fill="#21201E"/>
<path d="M72.0865 52.3992V55.6953L68.8135 55.6722V52.3992H72.0865Z" fill="#5FDBFD"/>
<path d="M72.0865 49.126V52.4221L68.8135 52.399V49.126H72.0865Z" fill="#21201E"/>
<path d="M72.0865 45.8762V49.1262H68.8135V45.8762H72.0865Z" fill="white"/>
<path d="M72.0865 42.603V45.8761H68.8135V42.603H72.0865Z" fill="white"/>
<path d="M72.0865 39.3301V42.6031H68.8135V39.3301H72.0865Z" fill="white"/>
<path d="M72.0865 36.0339V39.33L68.8135 39.307V36.0339H72.0865Z" fill="white"/>
<path d="M72.0865 32.7839V36.0339H68.8135V32.7839H72.0865Z" fill="white"/>
<path d="M72.0865 29.4878V32.7839L68.8135 32.7609V29.4878H72.0865Z" fill="white"/>
<path d="M72.0865 26.2378V29.4878H68.8135V26.2378H72.0865Z" fill="white"/>
<path d="M72.0865 22.9648V26.2379H68.8135V22.9648H72.0865Z" fill="white"/>
<path d="M72.0865 19.6687V22.9648L68.8135 22.9418V19.6687H72.0865Z" fill="white"/>
<path d="M72.0865 16.4187V19.6687H68.8135V16.4187H72.0865Z" fill="white"/>
<path d="M72.0865 13.1226V16.4187L68.8135 16.3956V13.1226H72.0865Z" fill="white"/>
<path d="M72.0865 9.87256V13.1226H68.8135V9.87256H72.0865Z" fill="white"/>
<path d="M72.0865 6.59961V9.87267H68.8135V6.59961H72.0865Z" fill="white"/>
<path d="M72.0865 3.30347V6.59957L68.8135 6.57653V3.30347H72.0865Z" fill="white"/>
<path d="M72.0865 0.0534668V3.30347H68.8135V0.0534668H72.0865Z" fill="#21201E"/>
<path d="M68.8136 52.3992V55.6953L65.5405 55.6722V52.3992H68.8136Z" fill="#21201E"/>
<path d="M68.8136 49.126V52.4221L65.5405 52.399V49.126H68.8136Z" fill="#5FDBFD"/>
<path d="M68.8136 45.8762V49.1262H65.5405V45.8762H68.8136Z" fill="#21201E"/>
<path d="M68.8136 42.603V45.8761H65.5405V42.603H68.8136Z" fill="white"/>
<path d="M68.8136 39.3301V42.6031H65.5405V39.3301H68.8136Z" fill="white"/>
<path d="M68.8136 36.0339V39.33L65.5405 39.307V36.0339H68.8136Z" fill="white"/>
<path d="M68.8136 32.7839V36.0339H65.5405V32.7839H68.8136Z" fill="white"/>
<path d="M68.8136 29.4878V32.7839L65.5405 32.7609V29.4878H68.8136Z" fill="white"/>
<path d="M68.8136 26.2378V29.4878H65.5405V26.2378H68.8136Z" fill="white"/>
<path d="M68.8136 22.9648V26.2379H65.5405V22.9648H68.8136Z" fill="white"/>
<path d="M68.8136 19.6687V22.9648L65.5405 22.9418V19.6687H68.8136Z" fill="white"/>
<path d="M68.8136 16.4187V19.6687H65.5405V16.4187H68.8136Z" fill="white"/>
<path d="M68.8136 13.1226V16.4187L65.5405 16.3956V13.1226H68.8136Z" fill="white"/>
<path d="M68.8136 9.87256V13.1226H65.5405V9.87256H68.8136Z" fill="white"/>
<path d="M68.8136 6.59961V9.87267H65.5405V6.59961H68.8136Z" fill="white"/>
<path d="M68.8136 3.30347V6.59957L65.5405 6.57653V3.30347H68.8136Z" fill="white"/>
<path d="M68.8136 0.0534668V3.30347H65.5405V0.0534668H68.8136Z" fill="#21201E"/>
<path d="M65.5406 52.3992V55.6953L62.2676 55.6722V52.3992H65.5406Z" fill="#21201E"/>
<path d="M65.5406 49.126V52.4221L62.2676 52.399V49.126H65.5406Z" fill="#5FDBFD"/>
<path d="M65.5406 45.8762V49.1262H62.2676V45.8762H65.5406Z" fill="#21201E"/>
<path d="M65.5406 42.603V45.8761H62.2676V42.603H65.5406Z" fill="white"/>
<path d="M65.5406 39.3301V42.6031H62.2676V39.3301H65.5406Z" fill="white"/>
<path d="M65.5406 36.0339V39.33L62.2676 39.307V36.0339H65.5406Z" fill="#21201E"/>
<path d="M65.5406 32.7839V36.0339H62.2676V32.7839H65.5406Z" fill="white"/>
<path d="M65.5406 29.4878V32.7839L62.2676 32.7609V29.4878H65.5406Z" fill="#21201E"/>
<path d="M65.5406 26.2378V29.4878H62.2676V26.2378H65.5406Z" fill="white"/>
<path d="M65.5406 22.9648V26.2379H62.2676V22.9648H65.5406Z" fill="#21201E"/>
<path d="M65.5406 19.6687V22.9648L62.2676 22.9418V19.6687H65.5406Z" fill="white"/>
<path d="M65.5406 16.4187V19.6687H62.2676V16.4187H65.5406Z" fill="#21201E"/>
<path d="M65.5406 13.1226V16.4187L62.2676 16.3956V13.1226H65.5406Z" fill="white"/>
<path d="M65.5406 9.87256V13.1226H62.2676V9.87256H65.5406Z" fill="#21201E"/>
<path d="M65.5406 6.59961V9.87267H62.2676V6.59961H65.5406Z" fill="white"/>
<path d="M65.5406 3.30347V6.59957L62.2676 6.57653V3.30347H65.5406Z" fill="white"/>
<path d="M65.5406 0.0534668V3.30347H62.2676V0.0534668H65.5406Z" fill="#21201E"/>
<path d="M62.2677 52.3992V55.6953L58.9946 55.6722V52.3992H62.2677Z" fill="#21201E"/>
<path d="M62.2677 49.126V52.4221L58.9946 52.399V49.126H62.2677Z" fill="#5FDBFD"/>
<path d="M62.2677 45.8762V49.1262H58.9946V45.8762H62.2677Z" fill="#21201E"/>
<path d="M62.2677 42.603V45.8761H58.9946V42.603H62.2677Z" fill="white"/>
<path d="M62.2677 39.3301V42.6031H58.9946V39.3301H62.2677Z" fill="white"/>
<path d="M62.2677 36.0339V39.33L58.9946 39.307V36.0339H62.2677Z" fill="#21201E"/>
<path d="M62.2677 32.7839V36.0339H58.9946V32.7839H62.2677Z" fill="white"/>
<path d="M62.2677 29.4878V32.7839L58.9946 32.7609V29.4878H62.2677Z" fill="#21201E"/>
<path d="M62.2677 26.2378V29.4878H58.9946V26.2378H62.2677Z" fill="white"/>
<path d="M62.2677 22.9648V26.2379H58.9946V22.9648H62.2677Z" fill="#21201E"/>
<path d="M62.2677 19.6687V22.9648L58.9946 22.9418V19.6687H62.2677Z" fill="white"/>
<path d="M62.2677 16.4187V19.6687H58.9946V16.4187H62.2677Z" fill="#21201E"/>
<path d="M62.2677 13.1226V16.4187L58.9946 16.3956V13.1226H62.2677Z" fill="white"/>
<path d="M62.2677 9.87256V13.1226H58.9946V9.87256H62.2677Z" fill="#21201E"/>
<path d="M62.2677 6.59961V9.87267H58.9946V6.59961H62.2677Z" fill="white"/>
<path d="M62.2677 3.30347V6.59957L58.9946 6.57653V3.30347H62.2677Z" fill="white"/>
<path d="M62.2677 0.0534668V3.30347H58.9946V0.0534668H62.2677Z" fill="#21201E"/>
<path d="M58.9947 52.3992V55.6953L55.7217 55.6722V52.3992H58.9947Z" fill="#21201E"/>
<path d="M58.9947 49.126V52.4221L55.7217 52.399V49.126H58.9947Z" fill="#5FDBFD"/>
<path d="M58.9947 45.8762V49.1262H55.7217V45.8762H58.9947Z" fill="#21201E"/>
<path d="M58.9947 42.603V45.8761H55.7217V42.603H58.9947Z" fill="white"/>
<path d="M58.9947 39.3301V42.6031H55.7217V39.3301H58.9947Z" fill="white"/>
<path d="M58.9947 36.0339V39.33L55.7217 39.307V36.0339H58.9947Z" fill="#21201E"/>
<path d="M58.9947 32.7839V36.0339H55.7217V32.7839H58.9947Z" fill="white"/>
<path d="M58.9947 29.4878V32.7839L55.7217 32.7609V29.4878H58.9947Z" fill="#21201E"/>
<path d="M58.9947 26.2378V29.4878H55.7217V26.2378H58.9947Z" fill="white"/>
<path d="M58.9947 22.9648V26.2379H55.7217V22.9648H58.9947Z" fill="#21201E"/>
<path d="M58.9947 19.6687V22.9648L55.7217 22.9418V19.6687H58.9947Z" fill="white"/>
<path d="M58.9947 16.4187V19.6687H55.7217V16.4187H58.9947Z" fill="#21201E"/>
<path d="M58.9947 13.1226V16.4187L55.7217 16.3956V13.1226H58.9947Z" fill="white"/>
<path d="M58.9947 9.87256V13.1226H55.7217V9.87256H58.9947Z" fill="#21201E"/>
<path d="M58.9947 6.59961V9.87267H55.7217V6.59961H58.9947Z" fill="white"/>
<path d="M58.9947 3.30347V6.59957L55.7217 6.57653V3.30347H58.9947Z" fill="white"/>
<path d="M58.9947 0.0534668V3.30347H55.7217V0.0534668H58.9947Z" fill="#21201E"/>
<path d="M55.7213 52.3992V55.6953L52.4482 55.6722V52.3992H55.7213Z" fill="#21201E"/>
<path d="M55.7213 49.126V52.4221L52.4482 52.399V49.126H55.7213Z" fill="#5FDBFD"/>
<path d="M55.7213 45.8762V49.1262H52.4482V45.8762H55.7213Z" fill="#21201E"/>
<path d="M55.7213 42.603V45.8761H52.4482V42.603H55.7213Z" fill="white"/>
<path d="M55.7213 39.3301V42.6031H52.4482V39.3301H55.7213Z" fill="white"/>
<path d="M55.7213 36.0339V39.33L52.4482 39.307V36.0339H55.7213Z" fill="#21201E"/>
<path d="M55.7213 32.7839V36.0339H52.4482V32.7839H55.7213Z" fill="white"/>
<path d="M55.7213 29.4878V32.7839L52.4482 32.7609V29.4878H55.7213Z" fill="#21201E"/>
<path d="M55.7213 26.2378V29.4878H52.4482V26.2378H55.7213Z" fill="white"/>
<path d="M55.7213 22.9648V26.2379H52.4482V22.9648H55.7213Z" fill="#21201E"/>
<path d="M55.7213 19.6687V22.9648L52.4482 22.9418V19.6687H55.7213Z" fill="white"/>
<path d="M55.7213 16.4187V19.6687H52.4482V16.4187H55.7213Z" fill="#21201E"/>
<path d="M55.7213 13.1226V16.4187L52.4482 16.3956V13.1226H55.7213Z" fill="white"/>
<path d="M55.7213 9.87256V13.1226H52.4482V9.87256H55.7213Z" fill="#21201E"/>
<path d="M55.7213 6.59961V9.87267H52.4482V6.59961H55.7213Z" fill="white"/>
<path d="M55.7213 3.30347V6.59957L52.4482 6.57653V3.30347H55.7213Z" fill="white"/>
<path d="M55.7213 0.0534668V3.30347H52.4482V0.0534668H55.7213Z" fill="#21201E"/>
<path d="M52.4484 52.3992V55.6953L49.1753 55.6722V52.3992H52.4484Z" fill="#21201E"/>
<path d="M52.4484 49.126V52.4221L49.1753 52.399V49.126H52.4484Z" fill="#5FDBFD"/>
<path d="M52.4484 45.8762V49.1262H49.1753V45.8762H52.4484Z" fill="#21201E"/>
<path d="M52.4484 42.603V45.8761H49.1753V42.603H52.4484Z" fill="white"/>
<path d="M52.4484 39.3301V42.6031H49.1753V39.3301H52.4484Z" fill="white"/>
<path d="M52.4484 36.0339V39.33L49.1753 39.307V36.0339H52.4484Z" fill="#21201E"/>
<path d="M52.4484 32.7839V36.0339H49.1753V32.7839H52.4484Z" fill="white"/>
<path d="M52.4484 29.4878V32.7839L49.1753 32.7609V29.4878H52.4484Z" fill="#21201E"/>
<path d="M52.4484 26.2378V29.4878H49.1753V26.2378H52.4484Z" fill="white"/>
<path d="M52.4484 22.9648V26.2379H49.1753V22.9648H52.4484Z" fill="#21201E"/>
<path d="M52.4484 19.6687V22.9648L49.1753 22.9418V19.6687H52.4484Z" fill="white"/>
<path d="M52.4484 16.4187V19.6687H49.1753V16.4187H52.4484Z" fill="#21201E"/>
<path d="M52.4484 13.1226V16.4187L49.1753 16.3956V13.1226H52.4484Z" fill="white"/>
<path d="M52.4484 9.87256V13.1226H49.1753V9.87256H52.4484Z" fill="#21201E"/>
<path d="M52.4484 6.59961V9.87267H49.1753V6.59961H52.4484Z" fill="white"/>
<path d="M52.4484 3.30347V6.59957L49.1753 6.57653V3.30347H52.4484Z" fill="white"/>
<path d="M52.4484 0.0534668V3.30347H49.1753V0.0534668H52.4484Z" fill="#21201E"/>
<path d="M49.1754 52.3992V55.6953L45.9023 55.6722V52.3992H49.1754Z" fill="#21201E"/>
<path d="M49.1754 49.126V52.4221L45.9023 52.399V49.126H49.1754Z" fill="#5FDBFD"/>
<path d="M49.1754 45.8762V49.1262H45.9023V45.8762H49.1754Z" fill="#21201E"/>
<path d="M49.1754 42.603V45.8761H45.9023V42.603H49.1754Z" fill="white"/>
<path d="M49.1754 39.3301V42.6031H45.9023V39.3301H49.1754Z" fill="white"/>
<path d="M49.1754 36.0339V39.33L45.9023 39.307V36.0339H49.1754Z" fill="#21201E"/>
<path d="M49.1754 32.7839V36.0339H45.9023V32.7839H49.1754Z" fill="white"/>
<path d="M49.1754 29.4878V32.7839L45.9023 32.7609V29.4878H49.1754Z" fill="#21201E"/>
<path d="M49.1754 26.2378V29.4878H45.9023V26.2378H49.1754Z" fill="white"/>
<path d="M49.1754 22.9648V26.2379H45.9023V22.9648H49.1754Z" fill="#21201E"/>
<path d="M49.1754 19.6687V22.9648L45.9023 22.9418V19.6687H49.1754Z" fill="white"/>
<path d="M49.1754 16.4187V19.6687H45.9023V16.4187H49.1754Z" fill="#21201E"/>
<path d="M49.1754 13.1226V16.4187L45.9023 16.3956V13.1226H49.1754Z" fill="white"/>
<path d="M49.1754 9.87256V13.1226H45.9023V9.87256H49.1754Z" fill="#21201E"/>
<path d="M49.1754 6.59961V9.87267H45.9023V6.59961H49.1754Z" fill="white"/>
<path d="M49.1754 3.30347V6.59957L45.9023 6.57653V3.30347H49.1754Z" fill="white"/>
<path d="M49.1754 0.0534668V3.30347H45.9023V0.0534668H49.1754Z" fill="#21201E"/>
<path d="M45.9025 52.3992V55.6953L42.6294 55.6722V52.3992H45.9025Z" fill="#21201E"/>
<path d="M45.9025 49.126V52.4221L42.6294 52.399V49.126H45.9025Z" fill="#5FDBFD"/>
<path d="M45.9025 45.8762V49.1262H42.6294V45.8762H45.9025Z" fill="#21201E"/>
<path d="M45.9025 42.603V45.8761H42.6294V42.603H45.9025Z" fill="white"/>
<path d="M45.9025 39.3301V42.6031H42.6294V39.3301H45.9025Z" fill="white"/>
<path d="M45.9025 36.0339V39.33L42.6294 39.307V36.0339H45.9025Z" fill="white"/>
<path d="M45.9025 32.7839V36.0339H42.6294V32.7839H45.9025Z" fill="white"/>
<path d="M45.9025 29.4878V32.7839L42.6294 32.7609V29.4878H45.9025Z" fill="white"/>
<path d="M45.9025 26.2378V29.4878H42.6294V26.2378H45.9025Z" fill="white"/>
<path d="M45.9025 22.9648V26.2379H42.6294V22.9648H45.9025Z" fill="white"/>
<path d="M45.9025 19.6687V22.9648L42.6294 22.9418V19.6687H45.9025Z" fill="white"/>
<path d="M45.9025 16.4187V19.6687H42.6294V16.4187H45.9025Z" fill="white"/>
<path d="M45.9025 13.1226V16.4187L42.6294 16.3956V13.1226H45.9025Z" fill="white"/>
<path d="M45.9025 9.87256V13.1226H42.6294V9.87256H45.9025Z" fill="white"/>
<path d="M45.9025 6.59961V9.87267H42.6294V6.59961H45.9025Z" fill="white"/>
<path d="M45.9025 3.30347V6.59957L42.6294 6.57653V3.30347H45.9025Z" fill="white"/>
<path d="M45.9025 0.0534668V3.30347H42.6294V0.0534668H45.9025Z" fill="#21201E"/>
<path d="M42.629 55.6953V58.9684H39.356V55.6953H42.629Z" fill="#21201E"/>
<path d="M42.629 52.3992V55.6953L39.356 55.6722V52.3992H42.629Z" fill="#5FDBFD"/>
<path d="M42.629 49.126V52.4221L39.356 52.399V49.126H42.629Z" fill="#21201E"/>
<path d="M42.629 45.8762V49.1262H39.356V45.8762H42.629Z" fill="white"/>
<path d="M42.629 42.603V45.8761H39.356V42.603H42.629Z" fill="white"/>
<path d="M42.629 39.3301V42.6031H39.356V39.3301H42.629Z" fill="white"/>
<path d="M42.629 36.0339V39.33L39.356 39.307V36.0339H42.629Z" fill="white"/>
<path d="M42.629 32.7839V36.0339H39.356V32.7839H42.629Z" fill="white"/>
<path d="M42.629 29.4878V32.7839L39.356 32.7609V29.4878H42.629Z" fill="white"/>
<path d="M42.629 26.2378V29.4878H39.356V26.2378H42.629Z" fill="white"/>
<path d="M42.629 22.9648V26.2379H39.356V22.9648H42.629Z" fill="white"/>
<path d="M42.629 19.6687V22.9648L39.356 22.9418V19.6687H42.629Z" fill="white"/>
<path d="M42.629 16.4187V19.6687H39.356V16.4187H42.629Z" fill="white"/>
<path d="M42.629 13.1226V16.4187L39.356 16.3956V13.1226H42.629Z" fill="white"/>
<path d="M42.629 9.87256V13.1226H39.356V9.87256H42.629Z" fill="white"/>
<path d="M42.629 6.59961V9.87267H39.356V6.59961H42.629Z" fill="white"/>
<path d="M42.629 3.30347V6.59957L39.356 6.57653V3.30347H42.629Z" fill="#21201E"/>
<path d="M39.3561 55.6953V58.9684H36.083V55.6953H39.3561Z" fill="#21201E"/>
<path d="M39.3561 52.3992V55.6953L36.083 55.6722V52.3992H39.3561Z" fill="#21201E"/>
<path d="M39.3561 49.126V52.4221L36.083 52.399V49.126H39.3561Z" fill="#21201E"/>
<path d="M39.3561 45.8762V49.1262H36.083V45.8762H39.3561Z" fill="#21201E"/>
<path d="M39.3561 42.603V45.8761H36.083V42.603H39.3561Z" fill="#21201E"/>
<path d="M39.3561 39.3301V42.6031H36.083V39.3301H39.3561Z" fill="#21201E"/>
<path d="M39.3561 36.0339V39.33L36.083 39.307V36.0339H39.3561Z" fill="#21201E"/>
<path d="M39.3561 32.7839V36.0339H36.083V32.7839H39.3561Z" fill="#21201E"/>
<path d="M39.3561 29.4878V32.7839L36.083 32.7609V29.4878H39.3561Z" fill="#21201E"/>
<path d="M39.3561 26.2378V29.4878H36.083V26.2378H39.3561Z" fill="#21201E"/>
<path d="M39.3561 22.9648V26.2379H36.083V22.9648H39.3561Z" fill="#21201E"/>
<path d="M39.3561 19.6687V22.9648L36.083 22.9418V19.6687H39.3561Z" fill="#21201E"/>
<path d="M39.3561 16.4187V19.6687H36.083V16.4187H39.3561Z" fill="#21201E"/>
<path d="M39.3561 13.1226V16.4187L36.083 16.3956V13.1226H39.3561Z" fill="#21201E"/>
<path d="M39.3561 9.87256V13.1226H36.083V9.87256H39.3561Z" fill="#21201E"/>
<path d="M39.3561 6.59961V9.87267H36.083V6.59961H39.3561Z" fill="#21201E"/>
<path d="M36.0831 55.6953V58.9684H32.8101V55.6953H36.0831Z" fill="#21201E"/>
<path d="M36.0831 52.3992V55.6953L32.8101 55.6722V52.3992H36.0831Z" fill="#5FDBFD"/>
<path d="M36.0831 49.126V52.4221L32.8101 52.399V49.126H36.0831Z" fill="#21201E"/>
<path d="M36.0831 45.8762V49.1262H32.8101V45.8762H36.0831Z" fill="white"/>
<path d="M36.0831 42.603V45.8761H32.8101V42.603H36.0831Z" fill="white"/>
<path d="M36.0831 39.3301V42.6031H32.8101V39.3301H36.0831Z" fill="white"/>
<path d="M36.0831 36.0339V39.33L32.8101 39.307V36.0339H36.0831Z" fill="white"/>
<path d="M36.0831 32.7839V36.0339H32.8101V32.7839H36.0831Z" fill="white"/>
<path d="M36.0831 29.4878V32.7839L32.8101 32.7609V29.4878H36.0831Z" fill="white"/>
<path d="M36.0831 26.2378V29.4878H32.8101V26.2378H36.0831Z" fill="white"/>
<path d="M36.0831 22.9648V26.2379H32.8101V22.9648H36.0831Z" fill="white"/>
<path d="M36.0831 19.6687V22.9648L32.8101 22.9418V19.6687H36.0831Z" fill="white"/>
<path d="M36.0831 16.4187V19.6687H32.8101V16.4187H36.0831Z" fill="white"/>
<path d="M36.0831 13.1226V16.4187L32.8101 16.3956V13.1226H36.0831Z" fill="white"/>
<path d="M36.0831 9.87256V13.1226H32.8101V9.87256H36.0831Z" fill="white"/>
<path d="M36.0831 6.59961V9.87267H32.8101V6.59961H36.0831Z" fill="white"/>
<path d="M36.0831 3.30347V6.59957L32.8101 6.57653V3.30347H36.0831Z" fill="#21201E"/>
<path d="M32.8102 52.3992V55.6953L29.5371 55.6722V52.3992H32.8102Z" fill="#21201E"/>
<path d="M32.8102 49.126V52.4221L29.5371 52.399V49.126H32.8102Z" fill="#5FDBFD"/>
<path d="M32.8102 45.8762V49.1262H29.5371V45.8762H32.8102Z" fill="#21201E"/>
<path d="M32.8102 42.603V45.8761H29.5371V42.603H32.8102Z" fill="white"/>
<path d="M32.8102 39.3301V42.6031H29.5371V39.3301H32.8102Z" fill="white"/>
<path d="M32.8102 36.0339V39.33L29.5371 39.307V36.0339H32.8102Z" fill="white"/>
<path d="M32.8102 32.7839V36.0339H29.5371V32.7839H32.8102Z" fill="white"/>
<path d="M32.8102 29.4878V32.7839L29.5371 32.7609V29.4878H32.8102Z" fill="white"/>
<path d="M32.8102 26.2378V29.4878H29.5371V26.2378H32.8102Z" fill="white"/>
<path d="M32.8102 22.9648V26.2379H29.5371V22.9648H32.8102Z" fill="white"/>
<path d="M32.8102 19.6687V22.9648L29.5371 22.9418V19.6687H32.8102Z" fill="white"/>
<path d="M32.8102 16.4187V19.6687H29.5371V16.4187H32.8102Z" fill="white"/>
<path d="M32.8102 13.1226V16.4187L29.5371 16.3956V13.1226H32.8102Z" fill="white"/>
<path d="M32.8102 9.87256V13.1226H29.5371V9.87256H32.8102Z" fill="white"/>
<path d="M32.8102 6.59961V9.87267H29.5371V6.59961H32.8102Z" fill="white"/>
<path d="M32.8102 3.30347V6.59957L29.5371 6.57653V3.30347H32.8102Z" fill="white"/>
<path d="M32.8102 0.0534668V3.30347H29.5371V0.0534668H32.8102Z" fill="#21201E"/>
<path d="M29.5367 52.3992V55.6953L26.2637 55.6722V52.3992H29.5367Z" fill="#21201E"/>
<path d="M29.5367 49.126V52.4221L26.2637 52.399V49.126H29.5367Z" fill="#5FDBFD"/>
<path d="M29.5367 45.8762V49.1262H26.2637V45.8762H29.5367Z" fill="#21201E"/>
<path d="M29.5367 42.603V45.8761H26.2637V42.603H29.5367Z" fill="white"/>
<path d="M29.5367 39.3301V42.6031H26.2637V39.3301H29.5367Z" fill="white"/>
<path d="M29.5367 36.0339V39.33L26.2637 39.307V36.0339H29.5367Z" fill="#21201E"/>
<path d="M29.5367 32.7839V36.0339H26.2637V32.7839H29.5367Z" fill="white"/>
<path d="M29.5367 29.4878V32.7839L26.2637 32.7609V29.4878H29.5367Z" fill="#21201E"/>
<path d="M29.5367 26.2378V29.4878H26.2637V26.2378H29.5367Z" fill="white"/>
<path d="M29.5367 22.9648V26.2379H26.2637V22.9648H29.5367Z" fill="#21201E"/>
<path d="M29.5367 19.6687V22.9648L26.2637 22.9418V19.6687H29.5367Z" fill="white"/>
<path d="M29.5367 16.4187V19.6687H26.2637V16.4187H29.5367Z" fill="#21201E"/>
<path d="M29.5367 13.1226V16.4187L26.2637 16.3956V13.1226H29.5367Z" fill="white"/>
<path d="M29.5367 9.87256V13.1226H26.2637V9.87256H29.5367Z" fill="#21201E"/>
<path d="M29.5367 6.59961V9.87267H26.2637V6.59961H29.5367Z" fill="white"/>
<path d="M29.5367 3.30347V6.59957L26.2637 6.57653V3.30347H29.5367Z" fill="white"/>
<path d="M29.5367 0.0534668V3.30347H26.2637V0.0534668H29.5367Z" fill="#21201E"/>
<path d="M26.2638 52.3992V55.6953L22.9907 55.6722V52.3992H26.2638Z" fill="#21201E"/>
<path d="M26.2638 49.126V52.4221L22.9907 52.399V49.126H26.2638Z" fill="#5FDBFD"/>
<path d="M26.2638 45.8762V49.1262H22.9907V45.8762H26.2638Z" fill="#21201E"/>
<path d="M26.2638 42.603V45.8761H22.9907V42.603H26.2638Z" fill="white"/>
<path d="M26.2638 39.3301V42.6031H22.9907V39.3301H26.2638Z" fill="white"/>
<path d="M26.2638 36.0339V39.33L22.9907 39.307V36.0339H26.2638Z" fill="#21201E"/>
<path d="M26.2638 32.7839V36.0339H22.9907V32.7839H26.2638Z" fill="white"/>
<path d="M26.2638 29.4878V32.7839L22.9907 32.7609V29.4878H26.2638Z" fill="#21201E"/>
<path d="M26.2638 26.2378V29.4878H22.9907V26.2378H26.2638Z" fill="white"/>
<path d="M26.2638 22.9648V26.2379H22.9907V22.9648H26.2638Z" fill="#21201E"/>
<path d="M26.2638 19.6687V22.9648L22.9907 22.9418V19.6687H26.2638Z" fill="white"/>
<path d="M26.2638 16.4187V19.6687H22.9907V16.4187H26.2638Z" fill="#21201E"/>
<path d="M26.2638 13.1226V16.4187L22.9907 16.3956V13.1226H26.2638Z" fill="white"/>
<path d="M26.2638 9.87256V13.1226H22.9907V9.87256H26.2638Z" fill="#21201E"/>
<path d="M26.2638 6.59961V9.87267H22.9907V6.59961H26.2638Z" fill="white"/>
<path d="M26.2638 3.30347V6.59957L22.9907 6.57653V3.30347H26.2638Z" fill="white"/>
<path d="M26.2638 0.0534668V3.30347H22.9907V0.0534668H26.2638Z" fill="#21201E"/>
<path d="M22.9908 52.3992V55.6953L19.7178 55.6722V52.3992H22.9908Z" fill="#21201E"/>
<path d="M22.9908 49.126V52.4221L19.7178 52.399V49.126H22.9908Z" fill="#5FDBFD"/>
<path d="M22.9908 45.8762V49.1262H19.7178V45.8762H22.9908Z" fill="#21201E"/>
<path d="M22.9908 42.603V45.8761H19.7178V42.603H22.9908Z" fill="white"/>
<path d="M22.9908 39.3301V42.6031H19.7178V39.3301H22.9908Z" fill="white"/>
<path d="M22.9908 36.0339V39.33L19.7178 39.307V36.0339H22.9908Z" fill="#21201E"/>
<path d="M22.9908 32.7839V36.0339H19.7178V32.7839H22.9908Z" fill="white"/>
<path d="M22.9908 29.4878V32.7839L19.7178 32.7609V29.4878H22.9908Z" fill="#21201E"/>
<path d="M22.9908 26.2378V29.4878H19.7178V26.2378H22.9908Z" fill="white"/>
<path d="M22.9908 22.9648V26.2379H19.7178V22.9648H22.9908Z" fill="#21201E"/>
<path d="M22.9908 19.6687V22.9648L19.7178 22.9418V19.6687H22.9908Z" fill="white"/>
<path d="M22.9908 16.4187V19.6687H19.7178V16.4187H22.9908Z" fill="#21201E"/>
<path d="M22.9908 13.1226V16.4187L19.7178 16.3956V13.1226H22.9908Z" fill="white"/>
<path d="M22.9908 9.87256V13.1226H19.7178V9.87256H22.9908Z" fill="#21201E"/>
<path d="M22.9908 6.59961V9.87267H19.7178V6.59961H22.9908Z" fill="white"/>
<path d="M22.9908 3.30347V6.59957L19.7178 6.57653V3.30347H22.9908Z" fill="white"/>
<path d="M22.9908 0.0534668V3.30347H19.7178V0.0534668H22.9908Z" fill="#21201E"/>
<path d="M19.7179 52.3992V55.6953L16.4448 55.6722V52.3992H19.7179Z" fill="#21201E"/>
<path d="M19.7179 49.126V52.4221L16.4448 52.399V49.126H19.7179Z" fill="#5FDBFD"/>
<path d="M19.7179 45.8762V49.1262H16.4448V45.8762H19.7179Z" fill="#21201E"/>
<path d="M19.7179 42.603V45.8761H16.4448V42.603H19.7179Z" fill="white"/>
<path d="M19.7179 39.3301V42.6031H16.4448V39.3301H19.7179Z" fill="white"/>
<path d="M19.7179 36.0339V39.33L16.4448 39.307V36.0339H19.7179Z" fill="#21201E"/>
<path d="M19.7179 32.7839V36.0339H16.4448V32.7839H19.7179Z" fill="white"/>
<path d="M19.7179 29.4878V32.7839L16.4448 32.7609V29.4878H19.7179Z" fill="#21201E"/>
<path d="M19.7179 26.2378V29.4878H16.4448V26.2378H19.7179Z" fill="white"/>
<path d="M19.7179 22.9648V26.2379H16.4448V22.9648H19.7179Z" fill="#21201E"/>
<path d="M19.7179 19.6687V22.9648L16.4448 22.9418V19.6687H19.7179Z" fill="white"/>
<path d="M19.7179 16.4187V19.6687H16.4448V16.4187H19.7179Z" fill="#21201E"/>
<path d="M19.7179 13.1226V16.4187L16.4448 16.3956V13.1226H19.7179Z" fill="white"/>
<path d="M19.7179 9.87256V13.1226H16.4448V9.87256H19.7179Z" fill="#21201E"/>
<path d="M19.7179 6.59961V9.87267H16.4448V6.59961H19.7179Z" fill="white"/>
<path d="M19.7179 3.30347V6.59957L16.4448 6.57653V3.30347H19.7179Z" fill="white"/>
<path d="M19.7179 0.0534668V3.30347H16.4448V0.0534668H19.7179Z" fill="#21201E"/>
<path d="M16.4449 52.3992V55.6953L13.1719 55.6722V52.3992H16.4449Z" fill="#21201E"/>
<path d="M16.4449 49.126V52.4221L13.1719 52.399V49.126H16.4449Z" fill="#5FDBFD"/>
<path d="M16.4449 45.8762V49.1262H13.1719V45.8762H16.4449Z" fill="#21201E"/>
<path d="M16.4449 42.603V45.8761H13.1719V42.603H16.4449Z" fill="white"/>
<path d="M16.4449 39.3301V42.6031H13.1719V39.3301H16.4449Z" fill="white"/>
<path d="M16.4449 36.0339V39.33L13.1719 39.307V36.0339H16.4449Z" fill="#21201E"/>
<path d="M16.4449 32.7839V36.0339H13.1719V32.7839H16.4449Z" fill="white"/>
<path d="M16.4449 29.4878V32.7839L13.1719 32.7609V29.4878H16.4449Z" fill="#21201E"/>
<path d="M16.4449 26.2378V29.4878H13.1719V26.2378H16.4449Z" fill="white"/>
<path d="M16.4449 22.9648V26.2379H13.1719V22.9648H16.4449Z" fill="#21201E"/>
<path d="M16.4449 19.6687V22.9648L13.1719 22.9418V19.6687H16.4449Z" fill="white"/>
<path d="M16.4449 16.4187V19.6687H13.1719V16.4187H16.4449Z" fill="#21201E"/>
<path d="M16.4449 13.1226V16.4187L13.1719 16.3956V13.1226H16.4449Z" fill="white"/>
<path d="M16.4449 9.87256V13.1226H13.1719V9.87256H16.4449Z" fill="#21201E"/>
<path d="M16.4449 6.59961V9.87267H13.1719V6.59961H16.4449Z" fill="white"/>
<path d="M16.4449 3.30347V6.59957L13.1719 6.57653V3.30347H16.4449Z" fill="white"/>
<path d="M16.4449 0.0534668V3.30347H13.1719V0.0534668H16.4449Z" fill="#21201E"/>
<path d="M13.1715 52.3992V55.6953L9.89844 55.6722V52.3992H13.1715Z" fill="#21201E"/>
<path d="M13.1715 49.126V52.4221L9.89844 52.399V49.126H13.1715Z" fill="#5FDBFD"/>
<path d="M13.1715 45.8762V49.1262H9.89844V45.8762H13.1715Z" fill="#21201E"/>
<path d="M13.1715 42.603V45.8761H9.89844V42.603H13.1715Z" fill="white"/>
<path d="M13.1715 39.3301V42.6031H9.89844V39.3301H13.1715Z" fill="white"/>
<path d="M13.1715 36.0339V39.33L9.89844 39.307V36.0339H13.1715Z" fill="#21201E"/>
<path d="M13.1715 32.7839V36.0339H9.89844V32.7839H13.1715Z" fill="white"/>
<path d="M13.1715 29.4878V32.7839L9.89844 32.7609V29.4878H13.1715Z" fill="#21201E"/>
<path d="M13.1715 26.2378V29.4878H9.89844V26.2378H13.1715Z" fill="white"/>
<path d="M13.1715 22.9648V26.2379H9.89844V22.9648H13.1715Z" fill="#21201E"/>
<path d="M13.1715 19.6687V22.9648L9.89844 22.9418V19.6687H13.1715Z" fill="white"/>
<path d="M13.1715 16.4187V19.6687H9.89844V16.4187H13.1715Z" fill="#21201E"/>
<path d="M13.1715 13.1226V16.4187L9.89844 16.3956V13.1226H13.1715Z" fill="white"/>
<path d="M13.1715 9.87256V13.1226H9.89844V9.87256H13.1715Z" fill="#21201E"/>
<path d="M13.1715 6.59961V9.87267H9.89844V6.59961H13.1715Z" fill="white"/>
<path d="M13.1715 3.30347V6.59957L9.89844 6.57653V3.30347H13.1715Z" fill="white"/>
<path d="M13.1715 0.0534668V3.30347H9.89844V0.0534668H13.1715Z" fill="#21201E"/>
<path d="M9.89855 52.3992V55.6953L6.62549 55.6722V52.3992H9.89855Z" fill="#21201E"/>
<path d="M9.89855 49.126V52.4221L6.62549 52.399V49.126H9.89855Z" fill="#5FDBFD"/>
<path d="M9.89855 45.8762V49.1262H6.62549V45.8762H9.89855Z" fill="#21201E"/>
<path d="M9.89855 42.603V45.8761H6.62549V42.603H9.89855Z" fill="white"/>
<path d="M9.89855 39.3301V42.6031H6.62549V39.3301H9.89855Z" fill="white"/>
<path d="M9.89855 36.0339V39.33L6.62549 39.307V36.0339H9.89855Z" fill="#21201E"/>
<path d="M9.89855 32.7839V36.0339H6.62549V32.7839H9.89855Z" fill="white"/>
<path d="M9.89855 29.4878V32.7839L6.62549 32.7609V29.4878H9.89855Z" fill="#21201E"/>
<path d="M9.89855 26.2378V29.4878H6.62549V26.2378H9.89855Z" fill="white"/>
<path d="M9.89855 22.9648V26.2379H6.62549V22.9648H9.89855Z" fill="#21201E"/>
<path d="M9.89855 19.6687V22.9648L6.62549 22.9418V19.6687H9.89855Z" fill="white"/>
<path d="M9.89855 16.4187V19.6687H6.62549V16.4187H9.89855Z" fill="#21201E"/>
<path d="M9.89855 13.1226V16.4187L6.62549 16.3956V13.1226H9.89855Z" fill="white"/>
<path d="M9.89855 9.87256V13.1226H6.62549V9.87256H9.89855Z" fill="#21201E"/>
<path d="M9.89855 6.59961V9.87267H6.62549V6.59961H9.89855Z" fill="white"/>
<path d="M9.89855 3.30347V6.59957L6.62549 6.57653V3.30347H9.89855Z" fill="white"/>
<path d="M9.89855 0.0534668V3.30347H6.62549V0.0534668H9.89855Z" fill="#21201E"/>
<path d="M6.6256 55.6953V58.9684H3.35254V55.6953H6.6256Z" fill="#21201E"/>
<path d="M6.6256 52.3992V55.6953L3.35254 55.6722V52.3992H6.6256Z" fill="#5FDBFD"/>
<path d="M6.6256 49.126V52.4221L3.35254 52.399V49.126H6.6256Z" fill="#21201E"/>
<path d="M6.6256 45.8762V49.1262H3.35254V45.8762H6.6256Z" fill="white"/>
<path d="M6.6256 42.603V45.8761H3.35254V42.603H6.6256Z" fill="white"/>
<path d="M6.6256 39.3301V42.6031H3.35254V39.3301H6.6256Z" fill="white"/>
<path d="M6.6256 36.0339V39.33L3.35254 39.307V36.0339H6.6256Z" fill="white"/>
<path d="M6.6256 32.7839V36.0339H3.35254V32.7839H6.6256Z" fill="white"/>
<path d="M6.6256 29.4878V32.7839L3.35254 32.7609V29.4878H6.6256Z" fill="white"/>
<path d="M6.6256 26.2378V29.4878H3.35254V26.2378H6.6256Z" fill="white"/>
<path d="M6.6256 22.9648V26.2379H3.35254V22.9648H6.6256Z" fill="white"/>
<path d="M6.6256 19.6687V22.9648L3.35254 22.9418V19.6687H6.6256Z" fill="white"/>
<path d="M6.6256 16.4187V19.6687H3.35254V16.4187H6.6256Z" fill="white"/>
<path d="M6.6256 13.1226V16.4187L3.35254 16.3956V13.1226H6.6256Z" fill="white"/>
<path d="M6.6256 9.87256V13.1226H3.35254V9.87256H6.6256Z" fill="white"/>
<path d="M6.6256 6.59961V9.87267H3.35254V6.59961H6.6256Z" fill="white"/>
<path d="M6.6256 3.30347V6.59957L3.35254 6.57653V3.30347H6.6256Z" fill="white"/>
<path d="M6.6256 0.0534668V3.30347H3.35254V0.0534668H6.6256Z" fill="#21201E"/>
<path d="M3.35265 55.6953V58.9684H0.0795898V55.6953H3.35265Z" fill="#21201E"/>
<path d="M3.35265 52.3992V55.6953L0.0795898 55.6722V52.3992H3.35265Z" fill="#21201E"/>
<path d="M3.35265 49.126V52.4221L0.0795898 52.399V49.126H3.35265Z" fill="#21201E"/>
<path d="M3.35265 45.8762V49.1262H0.0795898V45.8762H3.35265Z" fill="#21201E"/>
<path d="M3.35265 42.603V45.8761H0.0795898V42.603H3.35265Z" fill="#21201E"/>
<path d="M3.35265 39.3301V42.6031H0.0795898V39.3301H3.35265Z" fill="#21201E"/>
<path d="M3.35265 36.0339V39.33L0.0795898 39.307V36.0339H3.35265Z" fill="#21201E"/>
<path d="M3.35265 32.7839V36.0339H0.0795898V32.7839H3.35265Z" fill="#21201E"/>
<path d="M3.35265 29.4878V32.7839L0.0795898 32.7609V29.4878H3.35265Z" fill="#21201E"/>
<path d="M3.35265 26.2378V29.4878H0.0795898V26.2378H3.35265Z" fill="#21201E"/>
<path d="M3.35265 22.9648V26.2379H0.0795898V22.9648H3.35265Z" fill="#21201E"/>
<path d="M3.35265 19.6687V22.9648L0.0795898 22.9418V19.6687H3.35265Z" fill="#21201E"/>
<path d="M3.35265 16.4187V19.6687H0.0795898V16.4187H3.35265Z" fill="#21201E"/>
<path d="M3.35265 13.1226V16.4187L0.0795898 16.3956V13.1226H3.35265Z" fill="#21201E"/>
<path d="M3.35265 9.87256V13.1226H0.0795898V9.87256H3.35265Z" fill="#21201E"/>
<path d="M3.35265 6.59961V9.87267H0.0795898V6.59961H3.35265Z" fill="#21201E"/>
<path d="M3.35265 3.30347V6.59957L0.0795898 6.57653V3.30347H3.35265Z" fill="#21201E"/>
<path d="M47.2305 18.9842V15.7065H51.4964L47.2305 18.9842Z" fill="#F9C62C"/>
<path d="M55.928 18.9842L51.6621 15.7065H55.928V18.9842Z" fill="#F4EBA7"/>
<path d="M51.6623 7.00067H47.2305V2.56885H51.6623V7.00067Z" fill="#F9C62C"/>
<path d="M56.0939 7.00067H51.6621V2.56885H56.0939V7.00067Z" fill="#F4EBA7"/>
<path d="M51.6623 11.4321H47.2305V7.00024H51.6623V11.4321Z" fill="#F9C62C"/>
<path d="M56.0939 11.4321H51.6621V7.00024H56.0939V11.4321Z" fill="#F4EBA7"/>
<path d="M51.6623 15.8405H47.2305V11.4324H51.6623V15.8405Z" fill="#F9C62C"/>
<path d="M56.0939 15.8405H51.6621V11.4324H56.0939V15.8405Z" fill="#F4EBA7"/>
<path d="M47.2303 2.96436V16.2157L45.3413 16.123V2.96436H47.2303Z" fill="#21201E"/>
<path d="M57.7411 2.56885V17.8178L55.8521 17.7112V2.56885H57.7411Z" fill="#21201E"/>
<path d="M47.2303 9.49902V11.388L45.3413 11.3748V9.49902H47.2303Z" fill="#21201E"/>
<path d="M47.2303 6.23706V8.12609L45.3413 8.11288V6.23706H47.2303Z" fill="#21201E"/>
<path d="M47.2303 12.772V14.661L45.3413 14.6478V12.772H47.2303Z" fill="#21201E"/>
<path d="M47.2303 16.0566V17.9457L45.3413 17.9325V16.0566H47.2303Z" fill="#21201E"/>
<path d="M48.389 17.8176V19.7067L46.5 19.6934V17.8176H48.389Z" fill="#21201E"/>
<path d="M56.5394 17.8176V19.7067L54.6504 19.6934V17.8176H56.5394Z" fill="#21201E"/>
<path d="M53.2989 15.1477V18.4438L50.0259 18.4208V15.1477H53.2989Z" fill="#21201E"/>
<path d="M51.6617 16.4106V19.7067L48.3887 19.6837V16.4106H51.6617Z" fill="#21201E"/>
<path d="M54.9352 16.4106V19.7067L51.6621 19.6837V16.4106H54.9352Z" fill="#21201E"/>
</svg>
