<svg width="47" height="64" viewBox="0 0 47 64" fill="none" xmlns="http://www.w3.org/2000/svg">
<path d="M42.8799 53.0447V55.5397H44.7293V53.0447H42.8799Z" fill="white"/>
<path d="M41.0303 55.5397H42.8797V53.0447H41.0303V55.5397Z" fill="#F9C62C"/>
<path d="M39.1982 53.0447V55.5397H41.0302V53.0447H39.1982Z" fill="#F9C62C"/>
<path d="M37.3486 53.0447V55.5397H39.1981V53.0447H37.3486Z" fill="#F9C62C"/>
<path d="M35.5171 53.0447V55.5397H37.3491V53.0447H35.5171Z" fill="#F9C62C"/>
<path d="M41.0302 50.5668V48.0718H39.1982V50.5668H41.0302Z" fill="#00B590"/>
<path d="M13.3935 45.5771H11.5615V48.0721H13.3935V45.5771Z" fill="#00B590"/>
<path d="M15.243 33.1199H13.3936V35.5974H15.243V33.1199Z" fill="#00B590"/>
<path d="M15.243 30.6245H13.3936V33.1195H15.243V30.6245Z" fill="#FEFBEF"/>
<path d="M13.3935 23.1396H11.5615V25.6346H13.3935V23.1396Z" fill="#FEFEFB"/>
<path d="M15.243 20.6448H13.3936V23.1398H15.243V20.6448Z" fill="#FEFCF2"/>
<path d="M15.243 15.6725V13.1775H13.3936V15.6725H15.243Z" fill="#FEFCF2"/>
<path d="M22.6059 58.0344H20.7739V60.5294H22.6059H24.4553H26.3048V58.0344H24.4553H22.6059Z" fill="#F9C62C"/>
<path fill-rule="evenodd" clip-rule="evenodd" d="M33.6674 13.1772V25.6346H31.818V28.1296H33.6674V50.5669H6.03076V48.072H7.88019V35.5971H9.71216V18.1497H11.5616V15.6722H15.243V13.1772H18.9244V10.6822H20.7738V3.19727H26.3046V10.6822H28.1366V13.1772H33.6674ZM29.986 35.5971H28.1366V38.0921H29.986V35.5971ZM13.411 48.072V35.5971H15.243V20.6447H13.411V23.1396H11.5616V40.587H9.72961V48.072H13.411ZM20.7738 48.072V45.577H18.9244V48.072H20.7738ZM26.3046 48.072V45.577H24.4727V48.072H26.3046ZM31.818 43.082H29.986V45.577H31.818V43.082ZM31.818 15.6547H29.986V18.1497H31.818V15.6547Z" fill="#00E3B5"/>
<path d="M26.3045 45.5771H24.4551V48.0721H26.3045V45.5771Z" fill="#80EED3"/>
<path d="M20.7737 45.5771H18.9243V48.0721H20.7737V45.5771Z" fill="#80EED3"/>
<path d="M29.9863 45.577H31.8183V43.082H29.9863V45.577Z" fill="#80EED3"/>
<path d="M28.1367 38.0922H29.9861V35.5972H28.1367V38.0922Z" fill="#80EED3"/>
<path d="M37.3487 30.6248V28.1298V25.6348V23.1398V20.6449V18.1499H35.5167V15.6724H33.6673V18.1499V20.6449V23.1398V25.6348H31.8179V28.1298H33.6673V30.6248V33.1198V35.5973V38.0923V40.5872V43.0822V45.5772V48.0722V50.5671H35.5167H37.3487H39.1981V48.0722V45.5772V43.0822V40.5872V38.0923V35.5973V33.1198H37.3487V30.6248Z" fill="#00B590"/>
<path d="M31.8183 15.6724H29.9863V18.1499H31.8183V15.6724Z" fill="#80EED3"/>
<path d="M13.3933 25.6346H11.5613V28.1296V30.6246V33.1196V35.5971V38.0921V40.5871H9.71191V43.082V45.577V48.072H11.5613V45.577H13.3933V43.082V40.5871V38.0921V35.5971V33.1196V30.6246H15.2427V28.1296V25.6346V23.1396H13.3933V25.6346Z" fill="#80EED3"/>
<path d="M22.6059 60.5295H20.7739V63.0245H22.6059H24.4553H26.3048V60.5295H24.4553H22.6059Z" fill="black"/>
<path d="M41.0301 55.5396H39.1982H37.3487H35.5168H33.6673H31.8179H29.9859H28.1365H26.3045H24.4551H22.6057H20.7737H18.9243H17.0923H15.2429H13.3935H11.5615H9.71207H7.88009H6.03066H4.19869H1.09131V58.0345H4.19869H6.03066H7.88009H9.71207H11.5615H13.3935H15.2429H17.0923H18.9243V60.5295H20.7737V58.0345H22.6057H24.4551H26.3045V60.5295H28.1365V58.0345H29.9859H31.8179H33.6673H35.5168H37.3487H39.1982H41.0301H42.8796H46.4063V55.5396H42.8796H41.0301Z" fill="black"/>
<path d="M46.561 55.5397V53.0447H44.729V55.5397H46.561Z" fill="black"/>
<path d="M0.5 53.0447V55.5397H2.34942V53.0447H0.5Z" fill="black"/>
<path d="M2.23633 53.0447V55.5397H4.08575V53.0447H2.23633Z" fill="white"/>
<path d="M39.198 38.092V40.587V43.082V45.577V48.0719H41.03V50.5669H39.198H37.3486H35.5166H33.6672H31.8178H29.9858H28.1364H26.3044H24.455H22.6056H20.7736H18.9242H17.0922H15.2428H13.3933H11.5614H9.71195H7.87997H6.03055V48.0719H7.87997V45.577V43.082V40.587V38.092V35.597H9.71195V33.1195V30.6245V28.1296V25.6346V23.1396V20.6446V18.1497H7.04134V20.6446V23.1396V25.6346V28.1296V30.6245V33.1195H5.19191V35.597V38.092V40.587V43.082V45.577H3.35994V48.0719V50.5669H0.671875V53.0444H4.19857H6.03055H7.87997H9.71195H11.5614H13.3933H15.2428H17.0922H18.9242H20.7736H22.6056H24.455H26.3044H28.1364H29.9858H31.8178H33.6672H35.5166H37.3486H39.198H41.03H42.8794H46.8255V50.5669H43.7181V48.0719V45.577H41.8687V43.082V40.587V38.092V35.597V33.1195H39.198V35.597V38.092Z" fill="black"/>
<path d="M35.2827 52.5996H33.3433H31.3854H29.446H27.4881H25.5302H23.5908H21.6329H19.6935H17.7357H15.7778H13.8384H11.8805H9.9411H7.98322H6.04382H4.08594V56.0021H6.04382H7.98322H9.9411H11.8805H13.8384H15.7778H17.7357H19.6935H21.6329H23.5908H25.5302H27.4881H29.446H31.3854H33.3433H35.2827H37.2406H39.1984V52.5996H37.2406H35.2827Z" fill="white"/>
<path d="M39.6091 52.5996H39.8124H40.0177H40.221H40.4263H40.6316H40.8349H41.0402H41.2435H41.4488H41.6541H41.8574H42.0627H42.266H42.4713H42.6746H42.8799V56.0021H42.6746H42.4713H42.266H42.0627H41.8574H41.6541H41.4488H41.2435H41.0402H40.8349H40.6316H40.4263H40.221H40.0177H39.8124H39.6091H39.4038H39.1985V52.5996H39.4038H39.6091Z" fill="white"/>
<path d="M37.3486 23.1396V25.6346V28.1296V30.6245V33.1195H39.6174V30.6245V28.1296V25.6346V23.1396V20.6446V18.1497H37.3486V20.6446V23.1396Z" fill="black"/>
<path d="M11.5613 15.6724H9.71191V18.1499H11.5613V15.6724Z" fill="black"/>
<path d="M35.5174 15.6725V18.15H37.7687V15.6725V13.1775H35.9367H33.668V15.6725H35.5174Z" fill="black"/>
<path d="M13.3935 13.1775H11.5615V15.6725H13.3935V13.1775Z" fill="black"/>
<path d="M12.5551 14.4355H10.7231V16.9305H12.5551V14.4355Z" fill="black"/>
<path d="M10.4584 16.9512H8.62646V19.4461H10.4584V16.9512Z" fill="black"/>
<path d="M29.9861 13.1771H31.8181H33.6675V10.6821H31.8181H29.9861H28.1367V13.1771H29.9861Z" fill="black"/>
<path d="M17.0924 13.1771H18.9244V10.6821H17.0924H15.243H13.3936V13.1771H15.243H17.0924Z" fill="black"/>
<path d="M20.7736 8.18722V5.69224V3.19727H18.5049V5.69224V8.18722V10.6822H20.7736V8.18722Z" fill="black"/>
<path d="M26.3047 8.18722V10.6822H28.556V8.18722V5.69224V3.19727H26.3047V5.69224V8.18722Z" fill="black"/>
<path d="M24.4553 0.702393H22.6059H20.7739V3.19737H22.6059H24.4553H26.3048V0.702393H24.4553Z" fill="black"/>
</svg>
