<svg width="63" height="67" viewBox="0 0 63 67" fill="none" xmlns="http://www.w3.org/2000/svg">
<path d="M35.9432 6.26586L37.6233 4.29429L39.5961 5.97546L37.916 7.94702L35.9432 6.26586Z" fill="#21201E"/>
<path d="M34.263 8.23754L35.9432 6.26598L37.916 7.94715L36.2358 9.9187L34.263 8.23754Z" fill="#21201E"/>
<path d="M32.5829 10.2092L34.263 8.23761L36.2358 9.9188L34.5557 11.8904L32.5829 10.2092Z" fill="#21201E"/>
<path d="M30.9027 12.1806L32.5828 10.209L34.5556 11.8902L32.8755 13.8618L30.9027 12.1806Z" fill="#21201E"/>
<path d="M29.2225 14.1521L30.9026 12.1805L32.8754 13.8617L31.1953 15.8333L29.2225 14.1521Z" fill="#21201E"/>
<path d="M27.5423 16.124L29.2225 14.1524L31.1952 15.8336L29.5151 17.8052L27.5423 16.124Z" fill="#21201E"/>
<path d="M25.8622 18.0952L27.5423 16.1236L29.5151 17.8048L27.835 19.7764L25.8622 18.0952Z" fill="#21201E"/>
<path d="M24.182 20.0669L25.8621 18.0953L27.8349 19.7765L26.1548 21.748L24.182 20.0669Z" fill="#21201E"/>
<path d="M22.5018 22.0385L24.1819 20.067L26.1547 21.7481L24.4746 23.7197L22.5018 22.0385Z" fill="#21201E"/>
<path d="M20.8216 24.0102L22.5018 22.0386L24.4745 23.7198L22.7944 25.6914L20.8216 24.0102Z" fill="#21201E"/>
<path d="M19.1414 25.9819L20.8216 24.0104L22.7944 25.6915L21.1143 27.6631L19.1414 25.9819Z" fill="#21201E"/>
<path d="M17.4613 27.9534L19.1414 25.9818L21.1142 27.663L19.4341 29.6345L17.4613 27.9534Z" fill="#21201E"/>
<path d="M15.7816 29.9248L17.4617 27.9532L19.4345 29.6344L17.7544 31.606L15.7816 29.9248Z" fill="#21201E"/>
<path d="M14.1009 31.8962L15.7811 29.9246L17.7538 31.6058L16.0737 33.5774L14.1009 31.8962Z" fill="#21201E"/>
<path d="M12.4212 33.8682L14.1014 31.8966L16.0742 33.5778L14.394 35.5493L12.4212 33.8682Z" fill="#21201E"/>
<path d="M41.2757 4.00389L42.9559 2.03233L44.9287 3.71349L43.2485 5.68506L41.2757 4.00389Z" fill="#21201E"/>
<path d="M39.5956 5.97582L41.2757 4.00425L43.2485 5.68542L41.5684 7.65698L39.5956 5.97582Z" fill="#21201E"/>
<path d="M37.9154 7.94723L39.5955 5.97564L41.5683 7.65683L39.8882 9.62842L37.9154 7.94723Z" fill="#21201E"/>
<path d="M36.2357 9.91845L37.9158 7.94689L39.8886 9.62806L38.2085 11.5996L36.2357 9.91845Z" fill="#00B590"/>
<path d="M34.5555 11.8904L36.2356 9.9188L38.2085 11.6L36.5283 13.5715L34.5555 11.8904Z" fill="#00B590"/>
<path d="M32.8753 13.8618L34.5555 11.8902L36.5283 13.5714L34.8481 15.543L32.8753 13.8618Z" fill="#00B590"/>
<path d="M31.1952 15.8335L32.8753 13.8619L34.8481 15.5431L33.168 17.5146L31.1952 15.8335Z" fill="#00B590"/>
<path d="M29.5155 17.8047L31.1956 15.8331L33.1684 17.5143L31.4883 19.4858L29.5155 17.8047Z" fill="#00B590"/>
<path d="M27.8353 19.7766L29.5154 17.805L31.4882 19.4862L29.8081 21.4578L27.8353 19.7766Z" fill="#00B590"/>
<path d="M26.1551 21.748L27.8353 19.7765L29.8081 21.4576L28.1279 23.4292L26.1551 21.748Z" fill="#00B590"/>
<path d="M24.4749 23.7195L26.1551 21.7479L28.1279 23.4291L26.4478 25.4006L24.4749 23.7195Z" fill="#00B590"/>
<path d="M22.7948 25.6914L24.4749 23.7198L26.4477 25.401L24.7676 27.3726L22.7948 25.6914Z" fill="#00B590"/>
<path d="M21.1146 27.6628L22.7947 25.6913L24.7675 27.3724L23.0874 29.344L21.1146 27.6628Z" fill="#00B590"/>
<path d="M19.4344 29.6343L21.1145 27.6627L23.0874 29.3439L21.4072 31.3154L19.4344 29.6343Z" fill="#00B590"/>
<path d="M17.7542 31.6057L19.4344 29.6341L21.4072 31.3153L19.7271 33.2869L17.7542 31.6057Z" fill="#00B590"/>
<path d="M16.0741 33.5776L17.7542 31.606L19.727 33.2872L18.0469 35.2588L16.0741 33.5776Z" fill="#21201E"/>
<path d="M14.3939 35.5488L16.074 33.5772L18.0468 35.2584L16.3667 37.23L14.3939 35.5488Z" fill="white"/>
<path d="M12.7137 37.5205L14.3938 35.5489L16.3667 37.2301L14.6865 39.2017L12.7137 37.5205Z" fill="#21201E"/>
<path d="M43.2489 5.68503L44.929 3.71345L46.9018 5.39463L45.2217 7.36621L43.2489 5.68503Z" fill="#21201E"/>
<path d="M41.5687 7.65698L43.2488 5.68542L45.2216 7.36657L43.5415 9.33813L41.5687 7.65698Z" fill="#F9C62C"/>
<path d="M39.8885 9.62841L41.5687 7.65685L43.5415 9.33801L41.8613 11.3096L39.8885 9.62841Z" fill="#21201E"/>
<path d="M38.2083 11.5999L39.8885 9.6283L41.8613 11.3095L40.1812 13.281L38.2083 11.5999Z" fill="#00B590"/>
<path d="M36.5287 13.5713L38.2088 11.5997L40.1816 13.2809L38.5015 15.2524L36.5287 13.5713Z" fill="#00B590"/>
<path d="M34.848 15.5432L36.5281 13.5716L38.5009 15.2528L36.8208 17.2244L34.848 15.5432Z" fill="#00B590"/>
<path d="M33.1683 17.5146L34.8484 15.5431L36.8212 17.2242L35.1411 19.1958L33.1683 17.5146Z" fill="#00B590"/>
<path d="M31.4881 19.4861L33.1683 17.5145L35.1411 19.1957L33.4609 21.1672L31.4881 19.4861Z" fill="#00B590"/>
<path d="M29.808 21.4578L31.4881 19.4862L33.4609 21.1674L31.7808 23.1389L29.808 21.4578Z" fill="#00B590"/>
<path d="M28.1278 23.4294L29.8079 21.4579L31.7807 23.139L30.1006 25.1106L28.1278 23.4294Z" fill="#00B590"/>
<path d="M26.4476 25.4009L28.1277 23.4293L30.1005 25.1105L28.4204 27.082L26.4476 25.4009Z" fill="#00B590"/>
<path d="M24.7679 27.3728L26.4481 25.4012L28.4209 27.0824L26.7407 29.054L24.7679 27.3728Z" fill="#00B590"/>
<path d="M23.0873 29.344L24.7674 27.3724L26.7402 29.0536L25.0601 31.0251L23.0873 29.344Z" fill="#00B590"/>
<path d="M21.4076 31.3154L23.0877 29.3438L25.0605 31.025L23.3804 32.9966L21.4076 31.3154Z" fill="#00B590"/>
<path d="M19.7274 33.2871L21.4075 31.3155L23.3803 32.9967L21.7002 34.9683L19.7274 33.2871Z" fill="#00B590"/>
<path d="M18.0472 35.2588L19.7273 33.2872L21.7001 34.9684L20.02 36.9399L18.0472 35.2588Z" fill="#21201E"/>
<path d="M16.367 37.2302L18.0472 35.2587L20.02 36.9398L18.3398 38.9114L16.367 37.2302Z" fill="white"/>
<path d="M14.6869 39.2017L16.367 37.2301L18.3398 38.9113L16.6597 40.8828L14.6869 39.2017Z" fill="white"/>
<path d="M13.0067 41.1731L14.6868 39.2015L16.6596 40.8827L14.9795 42.8542L13.0067 41.1731Z" fill="#21201E"/>
<path d="M11.3265 43.145L13.0066 41.1734L14.9794 42.8546L13.2993 44.8262L11.3265 43.145Z" fill="#21201E"/>
<path d="M45.2215 7.36642L46.9017 5.39483L48.8744 7.07602L47.1943 9.04761L45.2215 7.36642Z" fill="#21201E"/>
<path d="M43.5414 9.33788L45.2215 7.36631L47.1943 9.04748L45.5142 11.019L43.5414 9.33788Z" fill="#F9C62C"/>
<path d="M41.8612 11.3093L43.5413 9.3377L45.5141 11.0189L43.834 12.9905L41.8612 11.3093Z" fill="#21201E"/>
<path d="M40.181 13.281L41.8611 11.3094L43.8339 12.9906L42.1538 14.9622L40.181 13.281Z" fill="#21201E"/>
<path d="M38.5008 15.2527L40.181 13.2811L42.1538 14.9623L40.4736 16.9338L38.5008 15.2527Z" fill="#21201E"/>
<path d="M36.8207 17.2241L38.5008 15.2525L40.4736 16.9337L38.7935 18.9053L36.8207 17.2241Z" fill="#21201E"/>
<path d="M35.1405 19.1955L36.8206 17.2239L38.7934 18.9051L37.1133 20.8767L35.1405 19.1955Z" fill="#21201E"/>
<path d="M33.4603 21.1674L35.1404 19.1959L37.1132 20.877L35.4331 22.8486L33.4603 21.1674Z" fill="#21201E"/>
<path d="M31.7801 23.1386L33.4602 21.1671L35.433 22.8482L33.7529 24.8198L31.7801 23.1386Z" fill="#21201E"/>
<path d="M30.1004 25.1106L31.7806 23.139L33.7534 24.8202L32.0732 26.7917L30.1004 25.1106Z" fill="#21201E"/>
<path d="M28.4203 27.082L30.1004 25.1104L32.0732 26.7916L30.3931 28.7632L28.4203 27.082Z" fill="#21201E"/>
<path d="M26.7401 29.0537L28.4202 27.0821L30.393 28.7633L28.7129 30.7349L26.7401 29.0537Z" fill="#21201E"/>
<path d="M25.0604 31.0254L26.7405 29.0538L28.7133 30.735L27.0332 32.7065L25.0604 31.0254Z" fill="#21201E"/>
<path d="M23.3797 32.9968L25.0599 31.0253L27.0327 32.7064L25.3525 34.678L23.3797 32.9968Z" fill="#21201E"/>
<path d="M21.7 34.9682L23.3802 32.9967L25.353 34.6779L23.6729 36.6494L21.7 34.9682Z" fill="#21201E"/>
<path d="M20.0199 36.9397L21.7 34.9681L23.6728 36.6493L21.9927 38.6208L20.0199 36.9397Z" fill="#21201E"/>
<path d="M18.3397 38.9116L20.0198 36.94L21.9926 38.6212L20.3125 40.5928L18.3397 38.9116Z" fill="white"/>
<path d="M16.6595 40.883L18.3396 38.9115L20.3125 40.5926L18.6323 42.5642L16.6595 40.883Z" fill="white"/>
<path d="M14.9793 42.8545L16.6595 40.8829L18.6323 42.5641L16.9521 44.5356L14.9793 42.8545Z" fill="white"/>
<path d="M13.2992 44.8259L14.9793 42.8544L16.9521 44.5355L15.272 46.5071L13.2992 44.8259Z" fill="white"/>
<path d="M11.619 46.7978L13.2991 44.8263L15.2719 46.5074L13.5918 48.479L11.619 46.7978Z" fill="#21201E"/>
<path d="M47.1947 9.04735L48.8748 7.07579L50.8476 8.75695L49.1675 10.7285L47.1947 9.04735Z" fill="#21201E"/>
<path d="M45.5145 11.0193L47.1946 9.04771L49.1674 10.7289L47.4873 12.7004L45.5145 11.0193Z" fill="#F9C62C"/>
<path d="M43.8343 12.9907L45.5144 11.0191L47.4872 12.7003L45.8071 14.6719L43.8343 12.9907Z" fill="#21201E"/>
<path d="M42.1541 14.9619L43.8343 12.9903L45.8071 14.6715L44.127 16.6431L42.1541 14.9619Z" fill="#00E3B5"/>
<path d="M40.474 16.9338L42.1541 14.9622L44.1269 16.6434L42.4468 18.615L40.474 16.9338Z" fill="#00E3B5"/>
<path d="M38.7938 18.9052L40.4739 16.9337L42.4467 18.6148L40.7666 20.5864L38.7938 18.9052Z" fill="#00E3B5"/>
<path d="M37.1136 20.8769L38.7937 18.9054L40.7666 20.5865L39.0864 22.5581L37.1136 20.8769Z" fill="#00E3B5"/>
<path d="M35.4334 22.8486L37.1136 20.8771L39.0864 22.5582L37.4062 24.5298L35.4334 22.8486Z" fill="#00E3B5"/>
<path d="M33.7533 24.8201L35.4334 22.8485L37.4062 24.5297L35.7261 26.5012L33.7533 24.8201Z" fill="#00E3B5"/>
<path d="M32.0731 26.7915L33.7532 24.8199L35.726 26.5011L34.0459 28.4727L32.0731 26.7915Z" fill="#00E3B5"/>
<path d="M30.3929 28.7629L32.073 26.7913L34.0458 28.4725L32.3657 30.4441L30.3929 28.7629Z" fill="#00E3B5"/>
<path d="M28.7128 30.7348L30.3929 28.7632L32.3657 30.4444L30.6855 32.416L28.7128 30.7348Z" fill="#00E3B5"/>
<path d="M27.0331 32.7063L28.7132 30.7347L30.686 32.4159L29.0059 34.3875L27.0331 32.7063Z" fill="#00E3B5"/>
<path d="M25.3529 34.678L27.033 32.7064L29.0058 34.3876L27.3257 36.3591L25.3529 34.678Z" fill="#00E3B5"/>
<path d="M23.6727 36.6496L25.3528 34.678L27.3256 36.3592L25.6455 38.3308L23.6727 36.6496Z" fill="#00E3B5"/>
<path d="M21.9925 38.6211L23.6727 36.6495L25.6455 38.3307L23.9653 40.3022L21.9925 38.6211Z" fill="#21201E"/>
<path d="M20.3123 40.5923L21.9925 38.6207L23.9653 40.3019L22.2852 42.2734L20.3123 40.5923Z" fill="white"/>
<path d="M18.6322 42.564L20.3123 40.5924L22.2851 42.2736L20.605 44.2451L18.6322 42.564Z" fill="white"/>
<path d="M16.952 44.5356L18.6321 42.564L20.6049 44.2452L18.9248 46.2168L16.952 44.5356Z" fill="white"/>
<path d="M15.2723 46.5073L16.9524 44.5357L18.9252 46.2169L17.2451 48.1885L15.2723 46.5073Z" fill="white"/>
<path d="M13.5921 48.4787L15.2723 46.5072L17.2451 48.1883L15.5649 50.1599L13.5921 48.4787Z" fill="white"/>
<path d="M11.912 50.4507L13.5921 48.4791L15.5649 50.1603L13.8848 52.1318L11.912 50.4507Z" fill="#21201E"/>
<path d="M10.2318 52.4218L11.9119 50.4503L13.8847 52.1314L12.2046 54.103L10.2318 52.4218Z" fill="#21201E"/>
<path d="M49.1673 10.7285L50.8475 8.75694L52.8203 10.4381L51.1401 12.4097L49.1673 10.7285Z" fill="#21201E"/>
<path d="M47.4872 12.7004L49.1673 10.7289L51.1401 12.41L49.46 14.3816L47.4872 12.7004Z" fill="#F9C62C"/>
<path d="M45.807 14.6718L47.4871 12.7003L49.4599 14.3814L47.7798 16.353L45.807 14.6718Z" fill="#21201E"/>
<path d="M44.1268 16.6433L45.8069 14.6717L47.7797 16.3529L46.0996 18.3245L44.1268 16.6433Z" fill="#00E3B5"/>
<path d="M42.4471 18.6147L44.1272 16.6432L46.1001 18.3243L44.4199 20.2959L42.4471 18.6147Z" fill="#00E3B5"/>
<path d="M40.7669 20.5867L42.4471 18.6151L44.4199 20.2963L42.7397 22.2678L40.7669 20.5867Z" fill="#00E3B5"/>
<path d="M39.0868 22.5581L40.7669 20.5865L42.7397 22.2677L41.0596 24.2393L39.0868 22.5581Z" fill="#00E3B5"/>
<path d="M37.4066 24.5295L39.0867 22.558L41.0595 24.2391L39.3794 26.2107L37.4066 24.5295Z" fill="#00E3B5"/>
<path d="M35.7264 26.5012L37.4065 24.5297L39.3793 26.2108L37.6992 28.1824L35.7264 26.5012Z" fill="#00E3B5"/>
<path d="M34.0462 28.4729L35.7264 26.5013L37.6992 28.1825L36.019 30.1541L34.0462 28.4729Z" fill="#00E3B5"/>
<path d="M32.3661 30.4443L34.0462 28.4728L36.019 30.1539L34.3389 32.1255L32.3661 30.4443Z" fill="#00E3B5"/>
<path d="M30.6859 32.4162L32.366 30.4446L34.3388 32.1258L32.6587 34.0974L30.6859 32.4162Z" fill="#00E3B5"/>
<path d="M29.0057 34.3872L30.6858 32.4156L32.6586 34.0968L30.9785 36.0684L29.0057 34.3872Z" fill="#00E3B5"/>
<path d="M27.3255 36.3589L29.0057 34.3873L30.9785 36.0685L29.2983 38.04L27.3255 36.3589Z" fill="#00E3B5"/>
<path d="M25.6454 38.3305L27.3255 36.3589L29.2983 38.0401L27.6182 40.0117L25.6454 38.3305Z" fill="#00E3B5"/>
<path d="M23.9652 40.3022L25.6453 38.3307L27.6181 40.0118L25.938 41.9834L23.9652 40.3022Z" fill="#21201E"/>
<path d="M22.285 42.2739L23.9651 40.3023L25.9379 41.9835L24.2578 43.9551L22.285 42.2739Z" fill="white"/>
<path d="M20.6048 44.2451L22.285 42.2735L24.2578 43.9547L22.5776 45.9263L20.6048 44.2451Z" fill="white"/>
<path d="M18.9247 46.217L20.6048 44.2454L22.5776 45.9266L20.8975 47.8982L18.9247 46.217Z" fill="white"/>
<path d="M17.245 48.1885L18.9251 46.2169L20.8979 47.8981L19.2178 49.8696L17.245 48.1885Z" fill="white"/>
<path d="M15.5648 50.1599L17.2449 48.1883L19.2177 49.8695L17.5376 51.8411L15.5648 50.1599Z" fill="white"/>
<path d="M13.8846 52.1316L15.5647 50.16L17.5376 51.8412L15.8574 53.8127L13.8846 52.1316Z" fill="#21201E"/>
<path d="M10.5243 56.0747L12.2044 54.1031L14.1772 55.7843L12.4971 57.7559L10.5243 56.0747Z" fill="#21201E"/>
<path d="M51.14 12.4099L52.8201 10.4383L54.7929 12.1195L53.1128 14.0911L51.14 12.4099Z" fill="#21201E"/>
<path d="M49.4598 14.3813L51.1399 12.4098L53.1127 14.0909L51.4326 16.0625L49.4598 14.3813Z" fill="#F9C62C"/>
<path d="M47.7796 16.3528L49.4598 14.3812L51.4326 16.0624L49.7524 18.0339L47.7796 16.3528Z" fill="#21201E"/>
<path d="M46.0995 18.3245L47.7796 16.3529L49.7524 18.0341L48.0723 20.0056L46.0995 18.3245Z" fill="#00E3B5"/>
<path d="M44.4193 20.2961L46.0994 18.3246L48.0722 20.0057L46.3921 21.9773L44.4193 20.2961Z" fill="#00E3B5"/>
<path d="M42.7391 22.2676L44.4192 20.296L46.392 21.9772L44.7119 23.9487L42.7391 22.2676Z" fill="#00E3B5"/>
<path d="M41.0594 24.239L42.7396 22.2674L44.7124 23.9486L43.0322 25.9202L41.0594 24.239Z" fill="#00E3B5"/>
<path d="M39.3792 26.2107L41.0594 24.2391L43.0322 25.9203L41.3521 27.8918L39.3792 26.2107Z" fill="#00E3B5"/>
<path d="M37.6991 28.1821L39.3792 26.2106L41.352 27.8917L39.6719 29.8633L37.6991 28.1821Z" fill="#00E3B5"/>
<path d="M36.0189 30.1538L37.699 28.1822L39.6718 29.8634L37.9917 31.835L36.0189 30.1538Z" fill="#00E3B5"/>
<path d="M34.3387 32.1255L36.0188 30.1539L37.9917 31.8351L36.3115 33.8066L34.3387 32.1255Z" fill="#00E3B5"/>
<path d="M32.6585 34.0972L34.3387 32.1256L36.3115 33.8068L34.6313 35.7783L32.6585 34.0972Z" fill="#00E3B5"/>
<path d="M30.9784 36.0688L32.6585 34.0973L34.6313 35.7784L32.9512 37.75L30.9784 36.0688Z" fill="#00E3B5"/>
<path d="M29.2987 38.0402L30.9788 36.0687L32.9516 37.7499L31.2715 39.7214L29.2987 38.0402Z" fill="#00E3B5"/>
<path d="M27.6185 40.0117L29.2986 38.0401L31.2714 39.7213L29.5913 41.6929L27.6185 40.0117Z" fill="#00E3B5"/>
<path d="M25.9383 41.9831L27.6185 40.0116L29.5913 41.6927L27.9111 43.6643L25.9383 41.9831Z" fill="#21201E"/>
<path d="M24.2581 43.9548L25.9383 41.9833L27.9111 43.6644L26.231 45.636L24.2581 43.9548Z" fill="white"/>
<path d="M22.578 45.9265L24.2581 43.9549L26.2309 45.6361L24.5508 47.6077L22.578 45.9265Z" fill="white"/>
<path d="M20.8978 47.8979L22.5779 45.9263L24.5507 47.6075L22.8706 49.5791L20.8978 47.8979Z" fill="white"/>
<path d="M19.2176 49.8693L20.8977 47.8978L22.8705 49.579L21.1904 51.5505L19.2176 49.8693Z" fill="white"/>
<path d="M17.5375 51.8413L19.2176 49.8697L21.1904 51.5509L19.5103 53.5225L17.5375 51.8413Z" fill="white"/>
<path d="M15.8573 53.8125L17.5374 51.8409L19.5102 53.5221L17.8301 55.4937L15.8573 53.8125Z" fill="#21201E"/>
<path d="M14.1771 55.7844L15.8572 53.8128L17.83 55.494L16.1499 57.4656L14.1771 55.7844Z" fill="#21201E"/>
<path d="M53.1126 14.0911L54.7928 12.1195L56.7656 13.8007L55.0854 15.7722L53.1126 14.0911Z" fill="#21201E"/>
<path d="M51.4325 16.0627L53.1126 14.0911L55.0854 15.7723L53.4053 17.7439L51.4325 16.0627Z" fill="#F9C62C"/>
<path d="M49.7523 18.0342L51.4324 16.0626L53.4052 17.7437L51.7251 19.7153L49.7523 18.0342Z" fill="#21201E"/>
<path d="M48.0726 20.0054L49.7527 18.0338L51.7255 19.715L50.0454 21.6865L48.0726 20.0054Z" fill="#21201E"/>
<path d="M46.3925 21.9773L48.0726 20.0057L50.0453 21.6869L48.3652 23.6584L46.3925 21.9773Z" fill="#21201E"/>
<path d="M44.7123 23.9487L46.3924 21.9771L48.3652 23.6583L46.6851 25.6299L44.7123 23.9487Z" fill="#21201E"/>
<path d="M43.0321 25.9204L44.7122 23.9488L46.685 25.63L45.0049 27.6016L43.0321 25.9204Z" fill="#21201E"/>
<path d="M41.3519 27.8921L43.032 25.9205L45.0048 27.6017L43.3247 29.5732L41.3519 27.8921Z" fill="#21201E"/>
<path d="M39.6717 29.8635L41.3519 27.8919L43.3246 29.5731L41.6445 31.5447L39.6717 29.8635Z" fill="#21201E"/>
<path d="M37.9916 31.8349L39.6717 29.8634L41.6445 31.5445L39.9644 33.5161L37.9916 31.8349Z" fill="#21201E"/>
<path d="M36.3114 33.8069L37.9915 31.8353L39.9643 33.5165L38.2842 35.488L36.3114 33.8069Z" fill="#21201E"/>
<path d="M34.6312 35.7783L36.3113 33.8067L38.2841 35.4879L36.604 37.4595L34.6312 35.7783Z" fill="#21201E"/>
<path d="M32.9515 37.7498L34.6316 35.7782L36.6045 37.4593L34.9243 39.4309L32.9515 37.7498Z" fill="#21201E"/>
<path d="M31.2713 39.7214L32.9515 37.7499L34.9243 39.431L33.2441 41.4026L31.2713 39.7214Z" fill="#21201E"/>
<path d="M29.5912 41.6931L31.2713 39.7216L33.2441 41.4027L31.564 43.3743L29.5912 41.6931Z" fill="#21201E"/>
<path d="M27.911 43.6645L29.5911 41.693L31.5639 43.3741L29.8838 45.3457L27.911 43.6645Z" fill="#21201E"/>
<path d="M26.2313 45.636L27.9114 43.6644L29.8842 45.3456L28.2041 47.3171L26.2313 45.636Z" fill="white"/>
<path d="M24.5511 47.6077L26.2313 45.6361L28.2041 47.3173L26.5239 49.2888L24.5511 47.6077Z" fill="white"/>
<path d="M22.8709 49.5791L24.5511 47.6075L26.5239 49.2887L24.8438 51.2603L22.8709 49.5791Z" fill="white"/>
<path d="M21.1908 51.5508L22.8709 49.5792L24.8437 51.2604L23.1636 53.2319L21.1908 51.5508Z" fill="white"/>
<path d="M19.5106 53.5222L21.1907 51.5507L23.1635 53.2318L21.4834 55.2034L19.5106 53.5222Z" fill="#21201E"/>
<path d="M55.0858 15.772L56.7659 13.8004L58.7387 15.4816L57.0586 17.4531L55.0858 15.772Z" fill="#21201E"/>
<path d="M53.4056 17.7439L55.0857 15.7723L57.0585 17.4535L55.3784 19.425L53.4056 17.7439Z" fill="#F9C62C"/>
<path d="M51.7254 19.7153L53.4056 17.7438L55.3784 19.4249L53.6982 21.3965L51.7254 19.7153Z" fill="#21201E"/>
<path d="M50.0453 21.6867L51.7254 19.7152L53.6982 21.3963L52.0181 23.3679L50.0453 21.6867Z" fill="#80EED3"/>
<path d="M48.3651 23.6582L50.0452 21.6866L52.018 23.3678L50.3379 25.3394L48.3651 23.6582Z" fill="#80EED3"/>
<path d="M46.6849 25.6301L48.365 23.6586L50.3378 25.3397L48.6577 27.3113L46.6849 25.6301Z" fill="#80EED3"/>
<path d="M45.0047 27.6015L46.6849 25.63L48.6577 27.3112L46.9775 29.2827L45.0047 27.6015Z" fill="#80EED3"/>
<path d="M43.3246 29.5735L45.0047 27.6019L46.9775 29.2831L45.2974 31.2546L43.3246 29.5735Z" fill="#80EED3"/>
<path d="M41.6444 31.5447L43.3245 29.5731L45.2973 31.2543L43.6172 33.2258L41.6444 31.5447Z" fill="#80EED3"/>
<path d="M39.9642 33.5163L41.6443 31.5448L43.6171 33.2259L41.937 35.1975L39.9642 33.5163Z" fill="#80EED3"/>
<path d="M38.284 35.4878L39.9642 33.5162L41.937 35.1974L40.2568 37.1689L38.284 35.4878Z" fill="#80EED3"/>
<path d="M36.6043 37.4597L38.2845 35.4881L40.2573 37.1693L38.5771 39.1409L36.6043 37.4597Z" fill="#80EED3"/>
<path d="M34.9242 39.4309L36.6043 37.4593L38.5771 39.1405L36.897 41.1121L34.9242 39.4309Z" fill="#80EED3"/>
<path d="M33.244 41.4023L34.9241 39.4308L36.8969 41.1119L35.2168 43.0835L33.244 41.4023Z" fill="#80EED3"/>
<path d="M31.5638 43.3743L33.2439 41.4027L35.2168 43.0839L33.5366 45.0554L31.5638 43.3743Z" fill="#80EED3"/>
<path d="M29.8836 45.3457L31.5638 43.3741L33.5366 45.0553L31.8564 47.0269L29.8836 45.3457Z" fill="#21201E"/>
<path d="M28.2035 47.3171L29.8836 45.3456L31.8564 47.0267L30.1763 48.9983L28.2035 47.3171Z" fill="white"/>
<path d="M26.5233 49.2886L28.2034 47.317L30.1762 48.9982L28.4961 50.9697L26.5233 49.2886Z" fill="white"/>
<path d="M24.8431 51.2605L26.5232 49.2889L28.496 50.9701L26.8159 52.9417L24.8431 51.2605Z" fill="#21201E"/>
<path d="M23.1634 53.2319L24.8436 51.2604L26.8164 52.9415L25.1362 54.9131L23.1634 53.2319Z" fill="#21201E"/>
<path d="M57.0584 17.4534L58.7386 15.4818L60.7114 17.163L59.0312 19.1345L57.0584 17.4534Z" fill="#21201E"/>
<path d="M55.3783 19.4253L57.0584 17.4537L59.0312 19.1349L57.3511 21.1064L55.3783 19.4253Z" fill="#21201E"/>
<path d="M53.6981 21.3962L55.3782 19.4246L57.351 21.1058L55.6709 23.0774L53.6981 21.3962Z" fill="#21201E"/>
<path d="M52.0179 23.3679L53.698 21.3964L55.6708 23.0775L53.9907 25.0491L52.0179 23.3679Z" fill="#80EED3"/>
<path d="M50.3377 25.3396L52.0179 23.368L53.9907 25.0492L52.3105 27.0208L50.3377 25.3396Z" fill="#80EED3"/>
<path d="M48.6581 27.311L50.3382 25.3394L52.311 27.0206L50.6309 28.9922L48.6581 27.311Z" fill="#80EED3"/>
<path d="M46.9779 29.2829L48.658 27.3114L50.6308 28.9925L48.9507 30.9641L46.9779 29.2829Z" fill="#80EED3"/>
<path d="M45.2977 31.2544L46.9778 29.2828L48.9506 30.964L47.2705 32.9355L45.2977 31.2544Z" fill="#80EED3"/>
<path d="M43.6175 33.2261L45.2976 31.2545L47.2705 32.9357L45.5903 34.9072L43.6175 33.2261Z" fill="#80EED3"/>
<path d="M41.9373 35.1975L43.6175 33.2259L45.5903 34.9071L43.9102 36.8787L41.9373 35.1975Z" fill="#80EED3"/>
<path d="M40.2572 37.1689L41.9373 35.1973L43.9101 36.8785L42.23 38.8501L40.2572 37.1689Z" fill="#80EED3"/>
<path d="M38.577 39.1408L40.2571 37.1692L42.2299 38.8504L40.5498 40.822L38.577 39.1408Z" fill="#80EED3"/>
<path d="M36.8968 41.1123L38.577 39.1407L40.5498 40.8219L38.8696 42.7935L36.8968 41.1123Z" fill="#80EED3"/>
<path d="M35.2166 43.0837L36.8968 41.1122L38.8696 42.7933L37.1895 44.7649L35.2166 43.0837Z" fill="#80EED3"/>
<path d="M33.5365 45.0551L35.2166 43.0836L37.1894 44.7647L35.5093 46.7363L33.5365 45.0551Z" fill="#80EED3"/>
<path d="M31.8563 47.0266L33.5364 45.055L35.5092 46.7362L33.8291 48.7078L31.8563 47.0266Z" fill="#21201E"/>
<path d="M30.1761 48.9985L31.8562 47.0269L33.829 48.7081L32.1489 50.6797L30.1761 48.9985Z" fill="white"/>
<path d="M28.4965 50.9699L30.1766 48.9983L32.1493 50.6795L30.4692 52.6511L28.4965 50.9699Z" fill="#21201E"/>
<path d="M55.6708 23.0776L57.3509 21.106L59.3237 22.7872L57.6436 24.7588L55.6708 23.0776Z" fill="#21201E"/>
<path d="M53.9906 25.0493L55.6707 23.0777L57.6435 24.7589L55.9634 26.7305L53.9906 25.0493Z" fill="#21201E"/>
<path d="M52.3109 27.0207L53.991 25.0492L55.9638 26.7303L54.2837 28.7019L52.3109 27.0207Z" fill="#21201E"/>
<path d="M50.6307 28.9922L52.3108 27.0206L54.2836 28.7018L52.6035 30.6733L50.6307 28.9922Z" fill="#21201E"/>
<path d="M48.9505 30.9639L50.6307 28.9923L52.6035 30.6735L50.9233 32.645L48.9505 30.9639Z" fill="#21201E"/>
<path d="M47.2704 32.9355L48.9505 30.964L50.9233 32.6451L49.2432 34.6167L47.2704 32.9355Z" fill="#21201E"/>
<path d="M45.5902 34.9072L47.2703 32.9357L49.2431 34.6168L47.563 36.5884L45.5902 34.9072Z" fill="#21201E"/>
<path d="M43.9105 36.8784L45.5906 34.9068L47.5634 36.588L45.8833 38.5596L43.9105 36.8784Z" fill="#21201E"/>
<path d="M42.2303 38.8503L43.9104 36.8788L45.8833 38.5599L44.2031 40.5315L42.2303 38.8503Z" fill="#21201E"/>
<path d="M40.5501 40.8218L42.2303 38.8502L44.2031 40.5314L42.5229 42.5029L40.5501 40.8218Z" fill="#21201E"/>
<path d="M38.87 42.7932L40.5501 40.8216L42.5229 42.5028L40.8428 44.4744L38.87 42.7932Z" fill="#21201E"/>
<path d="M37.1898 44.7649L38.8699 42.7933L40.8427 44.4745L39.1626 46.446L37.1898 44.7649Z" fill="#21201E"/>
<path d="M35.5096 46.7366L37.1897 44.765L39.1626 46.4462L37.4824 48.4177L35.5096 46.7366Z" fill="#21201E"/>
<path d="M33.8294 48.708L35.5096 46.7364L37.4824 48.4176L35.8022 50.3892L33.8294 48.708Z" fill="#21201E"/>
<path d="M32.1493 50.6792L33.8294 48.7076L35.8022 50.3888L34.1221 52.3604L32.1493 50.6792Z" fill="#21201E"/>
</svg>
