<svg width="70" height="70" viewBox="0 0 70 70" fill="none" xmlns="http://www.w3.org/2000/svg">
<g clip-path="url(#clip0_494_3944)">
<rect x="0.282715" width="69.1097" height="69.1097" rx="34.5549" fill="url(#paint0_linear_494_3944)"/>
<path d="M41.9795 40.0837V42.8481C41.9795 46.534 47.2779 48.1465 47.2779 48.1465C47.2779 48.1465 41.1732 52.7539 34.8382 52.7539C28.5031 52.7539 22.3984 48.1465 22.3984 48.1465C22.3984 48.1465 27.7385 46.534 27.6968 42.8481C27.6552 39.1623 27.683 36.9968 27.6552 30.6821C24.3536 26.4025 24.5655 23.5303 26.3709 21.5105C32.4193 14.7435 48.8905 17.0472 48.8905 17.0472C48.8905 17.0472 50.4275 33.6319 46.9324 38.4712C45.435 40.5445 41.9795 40.0837 41.9795 40.0837Z" fill="url(#paint1_linear_494_3944)"/>
<path style="mix-blend-mode:multiply" opacity="0.6" d="M41.9788 40.0837C36.9108 39.5078 33.916 37.3193 33.916 37.3193C35.8068 40.1166 38.6882 42.0924 41.9788 42.8481V40.0837Z" fill="url(#paint2_linear_494_3944)"/>
<path d="M59.0261 55.1282C61.2192 59.5874 62.4816 69.8716 62.4816 69.8716H7.19385C7.19385 69.8716 8.45671 59.5862 10.6493 55.1282C12.842 50.6701 25.6461 46.5353 25.6461 46.5353C28.1141 51.6017 41.6584 51.6017 44.0227 46.5337C44.0227 46.5337 56.8331 50.669 59.0261 55.1282Z" fill="url(#paint3_linear_494_3944)"/>
<path d="M33.916 64.0419C33.916 63.8596 33.9701 63.6815 34.0713 63.5299C34.1726 63.3784 34.3165 63.2603 34.4848 63.1905C34.6532 63.1208 34.8385 63.1025 35.0172 63.1381C35.196 63.1737 35.3602 63.2614 35.489 63.3903C35.6179 63.5192 35.7057 63.6833 35.7412 63.8621C35.7768 64.0408 35.7585 64.2261 35.6888 64.3945C35.6191 64.5629 35.5009 64.7068 35.3494 64.808C35.1979 64.9093 35.0197 64.9633 34.8375 64.9633C34.5931 64.9633 34.3587 64.8662 34.1859 64.6934C34.0131 64.5206 33.916 64.2862 33.916 64.0419ZM33.916 59.4345C33.916 59.2523 33.9701 59.0741 34.0713 58.9226C34.1726 58.7711 34.3165 58.653 34.4848 58.5832C34.6532 58.5135 34.8385 58.4952 35.0172 58.5308C35.196 58.5663 35.3602 58.6541 35.489 58.783C35.6179 58.9118 35.7057 59.076 35.7412 59.2548C35.7768 59.4335 35.7585 59.6188 35.6888 59.7872C35.6191 59.9555 35.5009 60.0995 35.3494 60.2007C35.1979 60.302 35.0197 60.356 34.8375 60.356C34.5931 60.356 34.3587 60.2589 34.1859 60.0861C34.0131 59.9133 33.916 59.6789 33.916 59.4345ZM33.916 54.8272C33.916 54.645 33.9701 54.4668 34.0713 54.3153C34.1726 54.1638 34.3165 54.0456 34.4848 53.9759C34.6532 53.9062 34.8385 53.8879 35.0172 53.9235C35.196 53.959 35.3602 54.0468 35.489 54.1757C35.6179 54.3045 35.7057 54.4687 35.7412 54.6475C35.7768 54.8262 35.7585 55.0115 35.6888 55.1799C35.6191 55.3482 35.5009 55.4921 35.3494 55.5934C35.1979 55.6946 35.0197 55.7487 34.8375 55.7487C34.5931 55.7487 34.3587 55.6516 34.1859 55.4788C34.0131 55.306 33.916 55.0716 33.916 54.8272V54.8272Z" fill="white"/>
<path d="M30.4965 23.7758C29.7639 23.1467 28.8738 22.7231 27.6155 23.3768C24.6325 24.9256 26.8901 30.869 29.5393 30.869C30.2304 30.869 30.5741 33.0395 27.4971 34.5549C27.4971 32.136 23.8113 26.1465 23.4888 20.6933C19.7799 19.3123 20.7013 13.7865 23.2476 13.7865C22.8412 8.7212 30.9526 6.1047 34.0934 9.01169C37.2877 5.18324 45.3505 7.14135 45.8372 10.4628C51.3815 7.50325 55.0258 16.0104 49.8346 19.313C47.6984 20.6721 42.7013 21.1893 35.4878 21.1893C34.3989 21.1893 33.7889 21.4597 34.0934 22.8062C34.6829 25.4153 33.3143 27.0588 30.4965 23.7758Z" fill="url(#paint4_linear_494_3944)"/>
</g>
<defs>
<linearGradient id="paint0_linear_494_3944" x1="34.8376" y1="69.1097" x2="34.8376" y2="0" gradientUnits="userSpaceOnUse">
<stop stop-color="#FFC9B3"/>
<stop offset="1" stop-color="#FFD2C2"/>
</linearGradient>
<linearGradient id="paint1_linear_494_3944" x1="35.8127" y1="16.6692" x2="35.8127" y2="52.7539" gradientUnits="userSpaceOnUse">
<stop stop-color="#E6864E"/>
<stop offset="1" stop-color="#EB965E"/>
</linearGradient>
<linearGradient id="paint2_linear_494_3944" x1="40.4549" y1="38.3587" x2="39.0428" y2="43.7061" gradientUnits="userSpaceOnUse">
<stop stop-color="#E07A3F"/>
<stop offset="1" stop-color="#EB9154"/>
</linearGradient>
<linearGradient id="paint3_linear_494_3944" x1="34.8377" y1="46.5337" x2="34.8377" y2="69.8716" gradientUnits="userSpaceOnUse">
<stop stop-color="#1D0024"/>
<stop offset="1" stop-color="#100014"/>
</linearGradient>
<linearGradient id="paint4_linear_494_3944" x1="36.6769" y1="6.9104" x2="36.6769" y2="34.5549" gradientUnits="userSpaceOnUse">
<stop stop-color="#1D0024"/>
<stop offset="1" stop-color="#100014"/>
</linearGradient>
<clipPath id="clip0_494_3944">
<rect x="0.282715" width="69.1097" height="69.1097" rx="34.5549" fill="white"/>
</clipPath>
</defs>
</svg>
